<?xml version="1.0" encoding="UTF-8" standalone="no"?>
<svg
   xmlns:dc="http://purl.org/dc/elements/1.1/"
   xmlns:cc="http://creativecommons.org/ns#"
   xmlns:rdf="http://www.w3.org/1999/02/22-rdf-syntax-ns#"
   xmlns:svg="http://www.w3.org/2000/svg"
   xmlns="http://www.w3.org/2000/svg"
   width="2.1167569mm"
   height="2.1177599mm"
   viewBox="0 0 2.1167569 2.1177599"
   version="1.1"
   id="svg6006">
  <defs
     id="defs6000" />
  <metadata
     id="metadata6003">
    <rdf:RDF>
      <cc:Work
         rdf:about="">
        <dc:format>image/svg+xml</dc:format>
        <dc:type
           rdf:resource="http://purl.org/dc/dcmitype/StillImage" />
        <dc:title></dc:title>
      </cc:Work>
    </rdf:RDF>
  </metadata>
  <g
     id="layer1"
     transform="translate(-102.48637,-141.72455)">
    <path
       d="m 103.54524,141.72455 c -0.0536,0 -0.0966,0.043 -0.0966,0.0966 v 0.86568 h -0.86567 c -0.0536,0 -0.0966,0.043 -0.0966,0.0966 0,0.0536 0.043,0.0966 0.0966,0.0966 h 0.86567 v 0.86568 c 0,0.0536 0.043,0.0966 0.0966,0.0966 0.0263,0 0.0511,-0.0106 0.0683,-0.0278 0.0172,-0.0172 0.0283,-0.0415 0.0278,-0.0683 v -0.86567 h 0.86567 c 0.0263,0 0.0511,-0.0106 0.0683,-0.0278 0.0177,-0.0177 0.0283,-0.0415 0.0278,-0.0683 0,-0.0536 -0.043,-0.0966 -0.0966,-0.0966 l -0.86466,-0.001 v -0.86568 c 0,-0.0536 -0.043,-0.0966 -0.0966,-0.0966 z"
       id="path5399"
       style="stroke-width:0.00715097;fill:#5a6376;fill-opacity:1" />
    <path
       style="opacity:1;fill:#999999;fill-opacity:1;stroke:#52a800;stroke-width:0;stroke-miterlimit:4;stroke-dasharray:none;stroke-opacity:1"
       id="path6702"
       d="m 104.59923,142.79459 a 1.0593309,1.0593311 0 0 1 -1.05795,1.05933 1.0593309,1.0593311 0 0 1 -1.06071,-1.05659 1.0593309,1.0593311 0 0 1 1.05521,-1.06207 1.0593309,1.0593311 0 0 1 1.06344,1.05383 l -1.05932,0.006 z" />
  </g>
</svg>
