<?xml version="1.0" encoding="UTF-8" standalone="no"?>
<svg
   xmlns:dc="http://purl.org/dc/elements/1.1/"
   xmlns:cc="http://creativecommons.org/ns#"
   xmlns:rdf="http://www.w3.org/1999/02/22-rdf-syntax-ns#"
   xmlns:svg="http://www.w3.org/2000/svg"
   xmlns="http://www.w3.org/2000/svg"
   version="1.1"
   id="Capa_1"
   x="0px"
   y="0px"
   viewBox="0 0 19.999999 19.891584"
   xml:space="preserve"
   width="20"
   height="19.891584"><metadata
     id="metadata4864"><rdf:RDF><cc:Work
         rdf:about=""><dc:format>image/svg+xml</dc:format><dc:type
           rdf:resource="http://purl.org/dc/dcmitype/StillImage" /><dc:title></dc:title></cc:Work></rdf:RDF></metadata><defs
     id="defs4862" /><g
     id="g4827"
     style="fill:#ffffff"
     transform="matrix(0.04244482,0,0,0.04554977,0,-0.78573353)"><g
       id="g4825"
       style="fill:#ffffff"><path
         d="m 457.7,230.15 c -7.5,0 -13.5,6 -13.5,13.5 v 122.8 c 0,33.4 -27.2,60.5 -60.5,60.5 H 87.5 c -33.4,0 -60.5,-27.2 -60.5,-60.5 v -124.8 c 0,-7.5 -6,-13.5 -13.5,-13.5 -7.5,0 -13.5,6 -13.5,13.5 v 124.8 c 0,48.3 39.3,87.5 87.5,87.5 h 296.2 c 48.3,0 87.5,-39.3 87.5,-87.5 v -122.8 c 0,-7.4 -6,-13.5 -13.5,-13.5 z"
         id="path4821"
         style="fill:#ffffff" /><path
         d="m 226.1,346.75 c 2.6,2.6 6.1,4 9.5,4 3.4,0 6.9,-1.3 9.5,-4 l 85.8,-85.8 c 5.3,-5.3 5.3,-13.8 0,-19.1 -5.3,-5.3 -13.8,-5.3 -19.1,0 l -62.7,62.8 V 30.75 c 0,-7.5 -6,-13.5 -13.5,-13.5 -7.5,0 -13.5,6 -13.5,13.5 v 273.9 l -62.8,-62.8 c -5.3,-5.3 -13.8,-5.3 -19.1,0 -5.3,5.3 -5.3,13.8 0,19.1 z"
         id="path4823"
         style="fill:#ffffff" /></g></g><g
     id="g4829"
     transform="translate(-225.6,-225.65419)" /><g
     id="g4831"
     transform="translate(-225.6,-225.65419)" /><g
     id="g4833"
     transform="translate(-225.6,-225.65419)" /><g
     id="g4835"
     transform="translate(-225.6,-225.65419)" /><g
     id="g4837"
     transform="translate(-225.6,-225.65419)" /><g
     id="g4839"
     transform="translate(-225.6,-225.65419)" /><g
     id="g4841"
     transform="translate(-225.6,-225.65419)" /><g
     id="g4843"
     transform="translate(-225.6,-225.65419)" /><g
     id="g4845"
     transform="translate(-225.6,-225.65419)" /><g
     id="g4847"
     transform="translate(-225.6,-225.65419)" /><g
     id="g4849"
     transform="translate(-225.6,-225.65419)" /><g
     id="g4851"
     transform="translate(-225.6,-225.65419)" /><g
     id="g4853"
     transform="translate(-225.6,-225.65419)" /><g
     id="g4855"
     transform="translate(-225.6,-225.65419)" /><g
     id="g4857"
     transform="translate(-225.6,-225.65419)" /></svg>