<?xml version="1.0" encoding="UTF-8" standalone="no"?>
<svg
   xmlns:dc="http://purl.org/dc/elements/1.1/"
   xmlns:cc="http://creativecommons.org/ns#"
   xmlns:rdf="http://www.w3.org/1999/02/22-rdf-syntax-ns#"
   xmlns:svg="http://www.w3.org/2000/svg"
   xmlns="http://www.w3.org/2000/svg"
   version="1.1"
   id="Capa_1"
   x="0px"
   y="0px"
   viewBox="0 0 7.1524329 12.000002"
   xml:space="preserve"
   width="7.1524324"
   height="12.000002"><metadata
     id="metadata6307"><rdf:RDF><cc:Work
         rdf:about=""><dc:format>image/svg+xml</dc:format><dc:type
           rdf:resource="http://purl.org/dc/dcmitype/StillImage" /><dc:title></dc:title></cc:Work></rdf:RDF></metadata><defs
     id="defs6305" /><g
     id="g6270"
     transform="matrix(0.02837562,0,0,0.02514801,-3.1938463,0)"
     style="fill:#ffffff"><path
       d="m 360.731,229.075 -225.1,-225.1 c -5.3,-5.3 -13.8,-5.3 -19.1,0 -5.3,5.3 -5.3,13.8 0,19.1 l 215.5,215.5 -215.5,215.5 c -5.3,5.3 -5.3,13.8 0,19.1 2.6,2.6 6.1,4 9.5,4 3.4,0 6.9,-1.3 9.5,-4 l 225.1,-225.1 c 5.3,-5.2 5.3,-13.8 0.1,-19 z"
       id="path6268"
       style="fill:#ffffff" /></g><g
     id="g6272"
     transform="translate(-235.01127,-328.32323)" /><g
     id="g6274"
     transform="translate(-235.01127,-328.32323)" /><g
     id="g6276"
     transform="translate(-235.01127,-328.32323)" /><g
     id="g6278"
     transform="translate(-235.01127,-328.32323)" /><g
     id="g6280"
     transform="translate(-235.01127,-328.32323)" /><g
     id="g6282"
     transform="translate(-235.01127,-328.32323)" /><g
     id="g6284"
     transform="translate(-235.01127,-328.32323)" /><g
     id="g6286"
     transform="translate(-235.01127,-328.32323)" /><g
     id="g6288"
     transform="translate(-235.01127,-328.32323)" /><g
     id="g6290"
     transform="translate(-235.01127,-328.32323)" /><g
     id="g6292"
     transform="translate(-235.01127,-328.32323)" /><g
     id="g6294"
     transform="translate(-235.01127,-328.32323)" /><g
     id="g6296"
     transform="translate(-235.01127,-328.32323)" /><g
     id="g6298"
     transform="translate(-235.01127,-328.32323)" /><g
     id="g6300"
     transform="translate(-235.01127,-328.32323)" /></svg>