<?xml version="1.0" encoding="UTF-8" standalone="no"?>
<svg
   xmlns:dc="http://purl.org/dc/elements/1.1/"
   xmlns:cc="http://creativecommons.org/ns#"
   xmlns:rdf="http://www.w3.org/1999/02/22-rdf-syntax-ns#"
   xmlns:svg="http://www.w3.org/2000/svg"
   xmlns="http://www.w3.org/2000/svg"
   height="14.015985"
   width="14.000001"
   xml:space="preserve"
   viewBox="0 0 14.000002 14.015986"
   y="0px"
   x="0px"
   id="Capa_1"
   version="1.1"><metadata
     id="metadata3838"><rdf:RDF><cc:Work
         rdf:about=""><dc:format>image/svg+xml</dc:format><dc:type
           rdf:resource="http://purl.org/dc/dcmitype/StillImage" /><dc:title></dc:title></cc:Work></rdf:RDF></metadata><defs
     id="defs3836" /><g
     transform="translate(-231.58749,-231.84667)"
     id="g3803" /><g
     transform="translate(-231.58749,-231.84667)"
     id="g3805" /><g
     transform="translate(-231.58749,-231.84667)"
     id="g3807" /><g
     transform="translate(-231.58749,-231.84667)"
     id="g3809" /><g
     transform="translate(-231.58749,-231.84667)"
     id="g3811" /><g
     transform="translate(-231.58749,-231.84667)"
     id="g3813" /><g
     transform="translate(-231.58749,-231.84667)"
     id="g3815" /><g
     transform="translate(-231.58749,-231.84667)"
     id="g3817" /><g
     transform="translate(-231.58749,-231.84667)"
     id="g3819" /><g
     transform="translate(-231.58749,-231.84667)"
     id="g3821" /><g
     transform="translate(-231.58749,-231.84667)"
     id="g3823" /><g
     transform="translate(-231.58749,-231.84667)"
     id="g3825" /><g
     transform="translate(-231.58749,-231.84667)"
     id="g3827" /><g
     transform="translate(-231.58749,-231.84667)"
     id="g3829" /><g
     transform="translate(-231.58749,-231.84667)"
     id="g3831" /><polygon
     id="polygon4693"
     points="0.005,6.997 105.263,112.254 0.005,217.512 6.998,224.512 112.256,119.24 217.521,224.512 224.507,217.512 119.249,112.254 224.507,6.997 217.521,0 112.256,105.258 6.998,0 "
     style="fill:#800000;fill-opacity:1"
     transform="matrix(0.06236025,0,0,0.06242867,-3.1180125e-4,0)" /></svg>