<?xml version="1.0" encoding="UTF-8" standalone="no"?>
<svg
   xmlns:dc="http://purl.org/dc/elements/1.1/"
   xmlns:cc="http://creativecommons.org/ns#"
   xmlns:rdf="http://www.w3.org/1999/02/22-rdf-syntax-ns#"
   xmlns:svg="http://www.w3.org/2000/svg"
   xmlns="http://www.w3.org/2000/svg"
   height="25.920717"
   width="19.999998"
   xml:space="preserve"
   viewBox="0 0 19.999999 25.920717"
   y="0px"
   x="0px"
   id="Capa_1"
   version="1.1"><metadata
     id="metadata6307"><rdf:RDF><cc:Work
         rdf:about=""><dc:format>image/svg+xml</dc:format><dc:type
           rdf:resource="http://purl.org/dc/dcmitype/StillImage" /><dc:title></dc:title></cc:Work></rdf:RDF></metadata><defs
     id="defs6305" /><g
     style="fill:#ffffff"
     transform="matrix(0,0.04729269,-0.04191334,0,19.999998,8.676924)"
     id="g6270"><path
       style="fill:#ffffff"
       id="path6268"
       d="m 360.731,229.075 -225.1,-225.1 c -5.3,-5.3 -13.8,-5.3 -19.1,0 -5.3,5.3 -5.3,13.8 0,19.1 l 215.5,215.5 -215.5,215.5 c -5.3,5.3 -5.3,13.8 0,19.1 2.6,2.6 6.1,4 9.5,4 3.4,0 6.9,-1.3 9.5,-4 l 225.1,-225.1 c 5.3,-5.2 5.3,-13.8 0.1,-19 z" /></g><g
     transform="translate(-228.58749,-314.36287)"
     id="g6272" /><g
     transform="translate(-228.58749,-314.36287)"
     id="g6274" /><g
     transform="translate(-228.58749,-314.36287)"
     id="g6276" /><g
     transform="translate(-228.58749,-314.36287)"
     id="g6278" /><g
     transform="translate(-228.58749,-314.36287)"
     id="g6280" /><g
     transform="translate(-228.58749,-314.36287)"
     id="g6282" /><g
     transform="translate(-228.58749,-314.36287)"
     id="g6284" /><g
     transform="translate(-228.58749,-314.36287)"
     id="g6286" /><g
     transform="translate(-228.58749,-314.36287)"
     id="g6288" /><g
     transform="translate(-228.58749,-314.36287)"
     id="g6290" /><g
     transform="translate(-228.58749,-314.36287)"
     id="g6292" /><g
     transform="translate(-228.58749,-314.36287)"
     id="g6294" /><g
     transform="translate(-228.58749,-314.36287)"
     id="g6296" /><g
     transform="translate(-228.58749,-314.36287)"
     id="g6298" /><g
     transform="translate(-228.58749,-314.36287)"
     id="g6300" /></svg>