<?xml version="1.0" encoding="UTF-8" standalone="no"?>
<svg
   xmlns:dc="http://purl.org/dc/elements/1.1/"
   xmlns:cc="http://creativecommons.org/ns#"
   xmlns:rdf="http://www.w3.org/1999/02/22-rdf-syntax-ns#"
   xmlns:svg="http://www.w3.org/2000/svg"
   xmlns="http://www.w3.org/2000/svg"
   xml:space="preserve"
   enable-background="new 0 0 512 512"
   viewBox="0 0 10 11.666823"
   height="11.666823"
   width="10"
   y="0px"
   x="0px"
   id="Layer_1"
   version="1.1"><metadata
     id="metadata6946"><rdf:RDF><cc:Work
         rdf:about=""><dc:format>image/svg+xml</dc:format><dc:type
           rdf:resource="http://purl.org/dc/dcmitype/StillImage" /><dc:title></dc:title></cc:Work></rdf:RDF></metadata><defs
     id="defs6944" /><g
     transform="translate(-250.99977,-250.16658)"
     id="g6948" /><g
     id="g7262"><path
       d="m 9.150726,5.0000669 -0.8171002,0 0.00225,-2.407277 C 8.3358758,1.1604822 6.8482566,0 5.0090098,0 3.1722077,0 1.6821433,1.1604822 1.6821433,2.5927899 l -0.015556,2.407277 -0.8349667,0 c -0.459784,0 -0.8138109,0.3710937 -0.8138109,0.729165 L 0,10.937635 c 0,0.358095 0.3898052,0.729189 0.8495891,0.729189 l 8.3204229,0 c 0.458183,0 0.812211,-0.371094 0.812211,-0.729189 L 10,5.7292319 C 10,5.3711606 9.608528,5.0000669 9.150411,5.0000669 Z M 3.3335593,2.5000333 c 0,-0.7145428 0.7601214,-1.204016 1.6756439,-1.204016 0.916368,0 1.657734,0.4894732 1.657734,1.204016 l -0.011114,2.5000336 -3.3219776,0 0,-2.5000336 z"
       id="path6940"
       style="fill:#008000" /></g></svg>